<svg width="60" height="60" viewBox="0 0 60 60" fill="none" xmlns="http://www.w3.org/2000/svg">
<path d="M12.7351 0.205253C14.8309 -0.493338 17.0961 0.639302 17.7947 2.73508L21.883 15H38.117L42.2053 2.73508C42.9039 0.639302 45.1691 -0.493338 47.2649 0.205253C49.3607 0.903845 50.4933 3.16912 49.7947 5.2649L46.5497 15H47C53.0751 15 58 19.9249 58 26V48C58 54.0751 53.0751 59 47 59H38C35.7909 59 34 57.2091 34 55C34 52.7909 35.7909 51 38 51H47C48.6569 51 50 49.6569 50 48V26C50 24.3431 48.6569 23 47 23H13C11.3431 23 10 24.3431 10 26V48C10 49.6569 11.3431 51 13 51H22C24.2091 51 26 52.7909 26 55C26 57.2091 24.2091 59 22 59H13C6.92487 59 2 54.0751 2 48V26C2 19.9249 6.92487 15 13 15H13.4503L10.2053 5.2649C9.50668 3.16912 10.6393 0.903845 12.7351 0.205253Z" fill="#FF3939"/>
<path d="M18 41C18 42.1046 18.8954 43 20 43C21.1046 43 22 42.1046 22 41V38H25C26.1046 38 27 37.1046 27 36C27 34.8954 26.1046 34 25 34H22V31C22 29.8954 21.1046 29 20 29C18.8954 29 18 29.8954 18 31V34H15C13.8954 34 13 34.8954 13 36C13 37.1046 13.8954 38 15 38H18V41Z" fill="#FF3939"/>
<path d="M33 36C33 34.8954 33.8954 34 35 34H38V31C38 29.8954 38.8954 29 40 29C41.1046 29 42 29.8954 42 31V34H45C46.1046 34 47 34.8954 47 36C47 37.1046 46.1046 38 45 38H42V41C42 42.1046 41.1046 43 40 43C38.8954 43 38 42.1046 38 41V38H35C33.8954 38 33 37.1046 33 36Z" fill="#FF3939"/>
</svg>
