<?xml version="1.0" standalone="no"?>
<!DOCTYPE svg PUBLIC "-//W3C//DTD SVG 1.1//EN" "http://www.w3.org/Graphics/SVG/1.1/DTD/svg11.dtd" >
<svg xmlns="http://www.w3.org/2000/svg">
<metadata>Generated by IcoMoon</metadata>
<defs>
<font id="yuemiao" horiz-adv-x="1024">
<font-face units-per-em="1024" ascent="960" descent="-64" />
<missing-glyph horiz-adv-x="1024" />
<glyph unicode="&#x20;" horiz-adv-x="512" d="" />
<glyph unicode="&#xe900;" glyph-name="cart-add-line" d="M554.667 469.334v170.667h-85.333v-170.667h-170.667v-85.333h170.667v-170.667h85.333v170.667h170.667v85.333h-170.667zM512 128c-164.949 0-298.667 133.717-298.667 298.667s133.718 298.667 298.667 298.667c164.949 0 298.667-133.718 298.667-298.667s-133.717-298.667-298.667-298.667zM512 42.667c212.079 0 384 171.921 384 384 0 212.077-171.921 384-384 384-212.077 0-384-171.923-384-384 0-212.079 171.923-384 384-384z" />
<glyph unicode="&#xe901;" glyph-name="cart-add1" d="M512 42.667c212.079 0 384 171.921 384 384 0 212.077-171.921 384-384 384-212.077 0-384-171.923-384-384 0-212.079 171.923-384 384-384zM554.667 640v-170.667h170.667v-85.333h-170.667v-170.667h-85.333v170.667h-170.667v85.333h170.667v170.667h85.333z" />
<glyph unicode="&#xe902;" glyph-name="cart-adds1" d="M554.667 469.334v256h-85.333v-256h-256v-85.333h256v-256h85.333v256h256v85.333h-256z" />
<glyph unicode="&#xe903;" glyph-name="cart-mini-line1" d="M725.333 384h-426.667v85.333h426.667v-85.333zM512 128c-164.949 0-298.667 133.717-298.667 298.667s133.718 298.667 298.667 298.667c164.949 0 298.667-133.718 298.667-298.667s-133.717-298.667-298.667-298.667zM512 42.667c212.079 0 384 171.921 384 384 0 212.077-171.921 384-384 384-212.077 0-384-171.923-384-384 0-212.079 171.923-384 384-384z" />
<glyph unicode="&#xe904;" glyph-name="cart-mini1" d="M896 426.667c0-212.079-171.921-384-384-384-212.077 0-384 171.921-384 384 0 212.077 171.923 384 384 384 212.079 0 384-171.923 384-384zM298.667 384h426.667v85.333h-426.667v-85.333z" />
<glyph unicode="&#xe905;" glyph-name="cart-minis1" d="M810.667 384h-597.333v85.333h597.333v-85.333z" />
<glyph unicode="&#xe906;" glyph-name="close" d="M572.339 426.667l271.531 271.529-60.339 60.34-271.531-271.529-271.529 271.529-60.34-60.34 271.529-271.529-271.529-271.531 60.34-60.339 271.529 271.531 271.531-271.531 60.339 60.339-271.531 271.531z" />
<glyph unicode="&#xe907;" glyph-name="checks" d="M96 426.667c0 229.751 186.249 416 416 416s416-186.249 416-416c0-229.751-186.249-416-416-416s-416 186.249-416 416zM512 778.667c-194.404 0-352-157.596-352-352 0-194.402 157.596-352 352-352 194.402 0 352 157.598 352 352 0 194.404-157.598 352-352 352zM746.159 578.963c13.419-11.501 14.972-31.703 3.469-45.121l-256-298.667c-11.499-13.419-31.701-14.972-45.12-3.469l-149.333 128c-13.419 11.499-14.973 31.701-3.471 45.12s31.703 14.972 45.121 3.469l125.039-107.174 235.174 274.372c11.499 13.419 31.701 14.973 45.12 3.471z" />
<glyph unicode="&#xe908;" glyph-name="exit" d="M96 725.334c0 41.237 33.429 74.667 74.667 74.667h469.333c41.237 0 74.667-33.429 74.667-74.667v-42.667c0-17.673-14.327-32-32-32s-32 14.327-32 32v42.667c0 5.891-4.774 10.667-10.667 10.667h-469.333c-5.891 0-10.667-4.776-10.667-10.667v-597.333c0-5.892 4.776-10.667 10.667-10.667h469.333c5.892 0 10.667 4.774 10.667 10.667v42.667c0 17.673 14.327 32 32 32s32-14.327 32-32v-42.667c0-41.237-33.429-74.667-74.667-74.667h-469.333c-41.237 0-74.667 33.429-74.667 74.667v597.333zM815.040 624.47c14.989 9.367 34.731 4.811 44.096-10.176l106.667-170.667c6.485-10.377 6.485-23.543 0-33.92l-106.667-170.667c-9.365-14.989-29.107-19.541-44.096-10.176s-19.541 29.107-10.176 44.096l76.066 121.707h-496.93c-17.673 0-32 14.327-32 32s14.327 32 32 32h496.93l-76.066 121.707c-9.365 14.987-4.813 34.729 10.176 44.096z" />
<glyph unicode="&#xe909;" glyph-name="lock-0" d="M138.667 469.334c0 41.237 33.429 74.667 74.667 74.667h597.333c41.237 0 74.667-33.429 74.667-74.667v-384c0-41.237-33.429-74.667-74.667-74.667h-597.333c-41.237 0-74.667 33.429-74.667 74.667v384zM213.333 480c-5.891 0-10.667-4.774-10.667-10.667v-384c0-5.892 4.776-10.667 10.667-10.667h597.333c5.892 0 10.667 4.774 10.667 10.667v384c0 5.892-4.774 10.667-10.667 10.667h-597.333zM309.333 640c0 111.93 90.737 202.667 202.667 202.667 111.932 0 202.667-90.737 202.667-202.667v-160h-405.333v160zM512 778.667c-76.582 0-138.667-62.083-138.667-138.667v-96h277.333v96c0 76.584-62.084 138.667-138.667 138.667z" />
<glyph unicode="&#xe90a;" glyph-name="lock-1" d="M522.667 576c0 123.712 100.288 224 224 224s224-100.288 224-224v-106.667c0-17.673-14.327-32-32-32s-32 14.327-32 32v106.667c0 88.366-71.633 160-160 160s-160-71.634-160-160v-74.667h96c41.237 0 74.667-33.429 74.667-74.667v-341.333c0-41.237-33.429-74.667-74.667-74.667h-512c-41.237 0-74.667 33.429-74.667 74.667v341.333c0 41.237 33.429 74.667 74.667 74.667h352v74.667zM170.667 437.334c-5.891 0-10.667-4.774-10.667-10.667v-341.333c0-5.892 4.776-10.667 10.667-10.667h512c5.892 0 10.667 4.774 10.667 10.667v341.333c0 5.892-4.774 10.667-10.667 10.667h-512z" />
<glyph unicode="&#xe90b;" glyph-name="menu-left" d="M790.626 662.628c-12.497 12.497-32.755 12.497-45.252 0l-213.333-213.335c-12.497-12.497-12.497-32.755 0-45.252l213.333-213.333c12.497-12.497 32.755-12.497 45.252 0s12.497 32.755 0 45.252l-190.703 190.707 190.703 190.706c12.497 12.497 12.497 32.758 0 45.255zM491.959 662.628c-12.497 12.497-32.755 12.497-45.252 0l-213.335-213.335c-12.497-12.497-12.497-32.755 0-45.252l213.335-213.333c12.497-12.497 32.755-12.497 45.252 0s12.497 32.755 0 45.252l-190.705 190.707 190.705 190.706c12.497 12.497 12.497 32.758 0 45.255z" />
<glyph unicode="&#xe90c;" glyph-name="menu-right" d="M233.373 662.628c12.497 12.497 32.758 12.497 45.255 0l213.332-213.335c12.497-12.497 12.497-32.755 0-45.252l-213.332-213.333c-12.497-12.497-32.758-12.497-45.255 0s-12.497 32.755 0 45.252l190.706 190.707-190.706 190.706c-12.497 12.497-12.497 32.758 0 45.255zM532.041 662.628c12.497 12.497 32.755 12.497 45.252 0l213.333-213.335c12.497-12.497 12.497-32.755 0-45.252l-213.333-213.333c-12.497-12.497-32.755-12.497-45.252 0s-12.497 32.755 0 45.252l190.703 190.707-190.703 190.706c-12.497 12.497-12.497 32.758 0 45.255z" />
<glyph unicode="&#xe90d;" glyph-name="menus" d="M370.526 672c0 17.673 14.327 32 32 32h461.474c17.673 0 32-14.327 32-32s-14.327-32-32-32h-461.474c-17.673 0-32 14.327-32 32zM370.526 416c0 17.673 14.327 32 32 32h461.474c17.673 0 32-14.327 32-32s-14.327-32-32-32h-461.474c-17.673 0-32 14.327-32 32zM370.526 160c0 17.673 14.327 32 32 32h461.474c17.673 0 32-14.327 32-32s-14.327-32-32-32h-461.474c-17.673 0-32 14.327-32 32zM128 672c0 17.673 14.327 32 32 32h57.263c17.673 0 32-14.327 32-32s-14.327-32-32-32h-57.263c-17.673 0-32 14.327-32 32zM128 416c0 17.673 14.327 32 32 32h57.263c17.673 0 32-14.327 32-32s-14.327-32-32-32h-57.263c-17.673 0-32 14.327-32 32zM128 160c0 17.673 14.327 32 32 32h57.263c17.673 0 32-14.327 32-32s-14.327-32-32-32h-57.263c-17.673 0-32 14.327-32 32z" />
<glyph unicode="&#xe90e;" glyph-name="mothe" d="M96 682.667c0 41.237 33.429 74.667 74.667 74.667h682.667c41.237 0 74.667-33.429 74.667-74.667v-554.667c0-41.237-33.429-74.667-74.667-74.667h-682.667c-41.237 0-74.667 33.429-74.667 74.667v554.667zM170.667 693.334c-5.891 0-10.667-4.776-10.667-10.667v-554.667c0-5.892 4.776-10.667 10.667-10.667h682.667c5.892 0 10.667 4.774 10.667 10.667v554.667c0 5.891-4.774 10.667-10.667 10.667h-682.667zM330.667 810.667c17.673 0 32-14.327 32-32v-106.667c0-17.673-14.327-32-32-32s-32 14.327-32 32v106.667c0 17.673 14.327 32 32 32zM714.667 810.667c17.673 0 32-14.327 32-32v-106.667c0-17.673-14.327-32-32-32s-32 14.327-32 32v106.667c0 17.673 14.327 32 32 32zM341.333 458.667c0 17.673 14.327 32 32 32h277.333c17.673 0 32-14.327 32-32s-14.327-32-32-32h-277.333c-17.673 0-32 14.327-32 32zM341.333 288c0 17.673 14.327 32 32 32h277.333c17.673 0 32-14.327 32-32s-14.327-32-32-32h-277.333c-17.673 0-32 14.327-32 32z" />
<glyph unicode="&#xe90f;" glyph-name="task" d="M96 768c0 41.237 33.429 74.667 74.667 74.667h682.667c41.237 0 74.667-33.429 74.667-74.667v-682.667c0-41.237-33.429-74.667-74.667-74.667h-682.667c-41.237 0-74.667 33.429-74.667 74.667v682.667zM170.667 778.667c-5.891 0-10.667-4.776-10.667-10.667v-96h704v96c0 5.891-4.774 10.667-10.667 10.667h-682.667zM864 608h-704v-522.667c0-5.892 4.776-10.667 10.667-10.667h682.667c5.892 0 10.667 4.774 10.667 10.667v522.667zM706.935 490.189c11.52-13.402 9.993-33.604-3.413-45.124l-248.243-213.333c-6.554-5.636-15.113-8.375-23.723-7.603-8.608 0.777-16.538 5.001-21.984 11.712l-93.091 114.761c-11.133 13.726-9.033 33.877 4.692 45.009 13.725 11.136 33.877 9.033 45.011-4.693l72.352-89.19 223.275 191.876c13.402 11.52 33.604 9.993 45.124-3.413z" />
<glyph unicode="&#xe910;" glyph-name="warning" d="M96 426.667c0 229.751 186.249 416 416 416s416-186.249 416-416c0-229.751-186.249-416-416-416s-416 186.249-416 416zM512 778.667c-194.404 0-352-157.596-352-352 0-194.402 157.596-352 352-352 194.402 0 352 157.598 352 352 0 194.404-157.598 352-352 352zM512 650.667c17.673 0 32-14.327 32-32v-263.859c0-17.673-14.327-32-32-32s-32 14.327-32 32v263.859c0 17.673 14.327 32 32 32zM512 265.545c17.673 0 32-14.327 32-32v-20.211c0-17.673-14.327-32-32-32s-32 14.327-32 32v20.211c0 17.673 14.327 32 32 32z" />
<glyph unicode="&#xe911;" glyph-name="vips" d="M512 800c10.334 0 20.032-4.991 26.039-13.4l193.694-271.168 186.944 149.556c9.971 7.977 23.731 9.263 35.008 3.27s17.907-18.116 16.879-30.844l-31.983-394.44-10.65-159.77c-1.122-16.811-15.083-29.871-31.932-29.871h-768c-16.847 0-30.808 13.060-31.929 29.871l-10.651 159.77-31.982 394.44c-1.032 12.728 5.602 24.851 16.879 30.844s25.036 4.707 35.007-3.27l186.946-149.556 193.691 271.168c6.007 8.41 15.706 13.4 26.039 13.4zM151.538 213.334l6.4-96h708.122l6.4 96h-720.922zM877.158 277.334l23.625 291.379-155.46-124.369c-6.861-5.487-15.68-7.915-24.388-6.707-8.704 1.207-16.533 5.943-21.641 13.099l-187.294 262.21-187.293-262.21c-5.109-7.155-12.934-11.891-21.641-13.099s-17.526 1.22-24.389 6.707l-155.458 124.369 23.625-291.379h730.314z" />
<glyph unicode="&#xe912;" glyph-name="camera" d="M343.641 791.063c-4.591 0-8.667-2.859-10.119-7.096l-40.236-117.444h-207.953c-5.891 0-10.667-4.646-10.667-10.378v-583.496c0-5.73 4.776-10.377 10.667-10.377h853.333c5.892 0 10.667 4.646 10.667 10.377v583.496c0 5.732-4.774 10.378-10.667 10.378h-207.953l-40.235 117.444c-1.455 4.238-5.53 7.096-10.121 7.096h-336.717zM272.806 803.659c10.163 29.665 38.696 49.675 70.835 49.675h336.717c32.141 0 60.672-20.010 70.835-49.675l25.647-74.865h161.826c41.237 0 74.667-32.526 74.667-72.649v-583.496c0-40.124-33.429-72.649-74.667-72.649h-853.333c-41.237 0-74.667 32.525-74.667 72.649v583.496c0 40.122 33.429 72.649 74.667 72.649h161.824l25.649 74.865zM512 520.072c-76.582 0-138.667-60.407-138.667-134.92s62.084-134.916 138.667-134.916c76.582 0 138.667 60.403 138.667 134.916s-62.084 134.92-138.667 134.92zM309.333 385.152c0 108.907 90.737 197.19 202.667 197.19 111.932 0 202.667-88.284 202.667-197.19 0-108.902-90.735-197.188-202.667-197.188-111.93 0-202.667 88.286-202.667 197.188z" />
<glyph unicode="&#xe913;" glyph-name="customer" d="M298.667 778.667c53.019 0 96-42.981 96-96s-42.981-96-96-96c-53.019 0-96 42.981-96 96s42.981 96 96 96zM404.545 562.707c33.19 29.317 54.122 72.194 54.122 119.96 0 88.366-71.634 160-160 160s-160-71.634-160-160c0-47.766 20.931-90.643 54.122-119.96-82.489-39.524-139.455-123.795-139.455-221.373v-256c0-41.237 33.429-74.667 74.667-74.667h768c41.237 0 74.667 33.429 74.667 74.667v256c0 97.579-56.964 181.849-139.456 221.373 33.19 29.317 54.123 72.194 54.123 119.96 0 88.366-71.633 160-160 160s-160-71.634-160-160c0-47.766 20.932-90.643 54.123-119.96-45.214-21.663-82.756-56.765-107.456-100.136-24.7 43.371-62.242 78.473-107.455 100.136zM480 341.334v-266.667h-352c-5.891 0-10.667 4.774-10.667 10.667v256c0 100.147 81.186 181.333 181.333 181.333s181.333-81.186 181.333-181.333zM544 74.667v266.667c0 100.147 81.186 181.333 181.333 181.333s181.333-81.186 181.333-181.333v-256c0-5.892-4.774-10.667-10.667-10.667h-352zM725.333 586.667c-53.018 0-96 42.981-96 96s42.982 96 96 96c53.018 0 96-42.981 96-96s-42.982-96-96-96z" />
<glyph unicode="&#xe914;" glyph-name="delete" d="M981.333 426.667c0-259.204-210.129-469.333-469.333-469.333-259.206 0-469.333 210.129-469.333 469.333 0 259.206 210.128 469.333 469.333 469.333s469.333-210.128 469.333-469.333zM330.981 189.598l181.019 181.018 181.018-181.018 60.343 60.339-181.022 181.018 181.022 181.020-60.343 60.34-181.018-181.020-181.019 181.020-60.34-60.34 181.020-181.020-181.020-181.018 60.34-60.339z" />
<glyph unicode="&#xe915;" glyph-name="doors" d="M170.667 778.667c-5.891 0-10.667-4.776-10.667-10.667v-682.667c0-5.892 4.776-10.667 10.667-10.667h301.666l7.33 704h-308.996zM543.667 778.667l-7.33-704h316.996c5.892 0 10.667 4.774 10.667 10.667v682.667c0 5.891-4.774 10.667-10.667 10.667h-309.666zM96 768c0 41.237 33.429 74.667 74.667 74.667h682.667c41.237 0 74.667-33.429 74.667-74.667v-682.667c0-41.237-33.429-74.667-74.667-74.667h-682.667c-41.237 0-74.667 33.429-74.667 74.667v682.667z" />
<glyph unicode="&#xe916;" glyph-name="image" d="M53.333 725.334c0 41.237 33.429 74.667 74.667 74.667h768c41.237 0 74.667-33.429 74.667-74.667v-597.333c0-41.237-33.429-74.667-74.667-74.667h-768c-41.237 0-74.667 33.429-74.667 74.667v597.333zM128 736c-5.891 0-10.667-4.776-10.667-10.667v-450.56l180.23 198.251 125.641-125.641 124.721 166.293 358.741-259.093v470.75c0 5.891-4.774 10.667-10.667 10.667h-768zM906.667 175.638l-345.259 249.353-131.281-175.040-130.357 130.359-182.436-200.683v-51.627c0-5.892 4.776-10.667 10.667-10.667h768c5.892 0 10.667 4.774 10.667 10.667v47.637z" />
<glyph unicode="&#xe917;" glyph-name="info" d="M896 426.667c0 212.077-171.921 384-384 384-212.077 0-384-171.923-384-384 0-212.079 171.923-384 384-384 212.079 0 384 171.921 384 384zM522.667 490.667c29.457 0 53.333-23.876 53.333-53.333v-234.667c0-29.457-23.876-53.333-53.333-53.333s-53.333 23.876-53.333 53.333v234.667c0 29.457 23.876 53.333 53.333 53.333zM576 608c0 29.455-23.876 53.333-53.333 53.333s-53.333-23.878-53.333-53.333c0-29.455 23.876-53.333 53.333-53.333s53.333 23.878 53.333 53.333z" />
<glyph unicode="&#xe918;" glyph-name="light" d="M337.322 275.394h349.356l-1.899-13.284c-12.102-84.599-84.836-149.625-172.779-149.625s-160.677 65.026-172.779 149.625l-1.899 13.284zM364.772 252.122c15.756-66.714 75.702-116.364 147.228-116.364s131.472 49.65 147.228 116.364h-294.456zM668.106 124.108c-5.176-5.786-10.671-11.28-16.456-16.456l66.053-66.053 16.456 16.456-66.053 66.053zM523.636 54.622c-3.852-0.212-7.731-0.319-11.636-0.319s-7.785 0.107-11.636 0.319v-93.41h23.273v93.41zM372.347 107.651c-5.783 5.176-11.278 10.671-16.456 16.456l-66.053-66.053 16.458-16.456 66.050 66.053zM500.364 740.695v174.7h23.273v-174.7c224.433-5.955 406.056-183.654 418.255-406.483l0.673-12.272h-861.129l0.672 12.272c12.202 222.829 193.823 400.528 418.256 406.483zM106.202 345.212h811.595c-17.701 208.584-192.626 372.364-405.797 372.364s-388.096-163.779-405.798-372.364z" />
<glyph unicode="&#xe919;" glyph-name="lives" d="M423.616 682.668l-124.102 103.417 40.972 49.166 171.514-142.928 171.514 142.928 40.973-49.166-124.099-103.417h391.613v-672.001h-960v672.001h391.616zM96 618.668v-544.001h832v544.001h-832zM672 346.667l-256 144v-288l256 144z" />
<glyph unicode="&#xe91a;" glyph-name="orders" d="M170.667 928c-41.237 0-74.667-33.429-74.667-74.667v-853.333c0-41.237 33.429-74.667 74.667-74.667h682.667c41.237 0 74.667 33.429 74.667 74.667v853.333c0 41.237-33.429 74.667-74.667 74.667h-682.667zM160 853.334c0 5.891 4.776 10.667 10.667 10.667h682.667c5.892 0 10.667-4.776 10.667-10.667v-853.333c0-5.892-4.774-10.667-10.667-10.667h-682.667c-5.891 0-10.667 4.774-10.667 10.667v853.333zM298.667 650.667h426.667v64h-426.667v-64zM682.667 437.334h-384v64h384v-64zM298.667 224h213.333v64h-213.333v-64z" />
<glyph unicode="&#xe91b;" glyph-name="phone" d="M213.333 864c-5.891 0-10.667-4.776-10.667-10.667v-853.333c0-5.892 4.776-10.667 10.667-10.667h597.333c5.892 0 10.667 4.774 10.667 10.667v853.333c0 5.891-4.774 10.667-10.667 10.667h-83.601l-25.651-76.945c-10.163-30.49-38.694-51.055-70.835-51.055h-215.827c-32.139 0-60.672 20.565-70.835 51.055l-25.648 76.945h-104.936zM385.731 864l18.902-56.707c1.452-4.355 5.528-7.293 10.119-7.293h215.827c4.591 0 8.67 2.938 10.121 7.293l18.901 56.707h-273.87zM138.667 853.334c0 41.237 33.429 74.667 74.667 74.667h597.333c41.237 0 74.667-33.429 74.667-74.667v-853.333c0-41.237-33.429-74.667-74.667-74.667h-597.333c-41.237 0-74.667 33.429-74.667 74.667v853.333zM640 74.667h-256v64h256v-64z" />
<glyph unicode="&#xe91c;" glyph-name="refresher" d="M270.641 227.973c133.299-133.295 349.42-133.295 482.72 0 47.275 47.275 77.726 104.853 91.482 165.47 4.804 21.188 24.768 35.379 46.357 32.96s37.918-20.676 37.918-42.402v-256c0-23.565-19.102-42.667-42.667-42.667s-42.667 19.102-42.667 42.667v73.020c-9.34-11.52-19.371-22.669-30.084-33.387-166.626-166.622-436.775-166.622-603.399 0-16.662 16.666-16.662 43.678 0 60.339 16.663 16.666 43.677 16.666 60.34 0zM132.8 426.932c-21.591 2.419-37.917 20.676-37.917 42.402v298.667c0 23.564 19.103 42.667 42.667 42.667s42.667-19.103 42.667-42.667v-115.689c9.34 11.524 19.369 22.672 30.084 33.388 166.624 166.624 436.773 166.624 603.399 0 16.661-16.663 16.661-43.677 0-60.34s-43.678-16.662-60.339 0c-133.299 133.299-349.421 133.299-482.72 0-47.275-47.274-77.728-104.85-91.482-165.468-4.807-21.188-24.768-35.379-46.359-32.96z" />
<glyph unicode="&#xe91d;" glyph-name="sales" d="M118.97 696.889c0.722-0.706 1.679-1.556 2.935-2.546 6.787-5.349 18.592-11.566 36.031-17.379 34.544-11.514 84.302-19.185 140.73-19.185s106.186 7.671 140.732 19.185c17.438 5.813 29.244 12.030 36.028 17.379 1.259 0.99 2.214 1.84 2.935 2.546-0.721 0.706-1.677 1.556-2.935 2.547-6.784 5.349-18.59 11.566-36.028 17.379-34.546 11.515-84.304 19.186-140.732 19.186s-106.186-7.671-140.73-19.186c-17.44-5.813-29.244-12.030-36.031-17.379-1.257-0.99-2.213-1.841-2.935-2.547zM480 623.956c-6.528-2.807-13.35-5.37-20.365-7.707-42.667-14.223-99.576-22.47-160.969-22.47s-118.301 8.247-160.969 22.47c-7.014 2.338-13.837 4.901-20.365 7.707v-103.026c0.602-0.803 1.915-2.271 4.572-4.365 6.787-5.35 18.592-11.566 36.031-17.377 34.544-11.516 84.302-19.187 140.73-19.187s106.186 7.671 140.732 19.187c17.438 5.811 29.244 12.028 36.028 17.377 2.658 2.094 3.972 3.562 4.574 4.365v103.026zM480 446.178c-6.528-2.807-13.35-5.372-20.365-7.71-42.667-14.221-99.576-22.468-160.969-22.468s-118.301 8.247-160.969 22.468c-7.014 2.338-13.837 4.902-20.365 7.71v-103.027c0.602-0.802 1.915-2.27 4.572-4.365 6.787-5.35 18.592-11.567 36.031-17.378 34.544-11.516 84.302-19.187 140.73-19.187s106.186 7.671 140.732 19.187c17.438 5.811 29.244 12.028 36.028 17.378 2.658 2.095 3.972 3.563 4.574 4.365v103.027zM480 268.399c-6.528-2.807-13.35-5.367-20.365-7.706-42.667-14.225-99.576-22.473-160.969-22.473s-118.301 8.247-160.969 22.473c-7.014 2.338-13.837 4.898-20.365 7.706v-103.027c0.602-0.802 1.915-2.27 4.572-4.365 6.787-5.346 18.592-11.563 36.031-17.378 34.544-11.511 84.302-19.183 140.73-19.183s106.186 7.671 140.732 19.183c17.438 5.815 29.244 12.032 36.028 17.378 2.658 2.095 3.972 3.563 4.574 4.365v103.027zM512 108.429c-14.379-10.564-32.619-18.931-52.365-25.515-42.667-14.221-99.576-22.468-160.969-22.468s-118.301 8.247-160.969 22.468c-21.167 7.057-40.604 16.162-55.407 27.827-14.442 11.383-28.957 28.988-28.957 52.813v533.335c0 23.826 14.515 41.431 28.957 52.813 14.803 11.666 34.241 20.773 55.407 27.828 42.667 14.223 99.576 22.47 160.969 22.47s118.301-8.247 160.969-22.47c21.167-7.056 40.606-16.162 55.407-27.828 14.443-11.382 28.958-28.987 28.958-52.813v-104.844c6.528 2.807 13.35 5.37 20.365 7.707 42.667 14.223 99.575 22.47 160.969 22.47s118.302-8.247 160.969-22.47c21.167-7.055 40.606-16.162 55.407-27.828 14.443-11.382 28.958-28.987 28.958-52.813v-355.557c0-23.825-14.515-41.429-28.958-52.813-14.801-11.665-34.24-20.77-55.407-27.827-42.667-14.221-99.575-22.468-160.969-22.468s-118.302 8.247-160.969 22.468c-19.746 6.583-37.986 14.95-52.365 25.515zM906.667 268.399c-6.528-2.807-13.35-5.367-20.365-7.706-42.667-14.225-99.575-22.473-160.969-22.473s-118.302 8.247-160.969 22.473c-7.014 2.338-13.837 4.898-20.365 7.706v-103.027c0.602-0.802 1.916-2.27 4.574-4.365 6.784-5.346 18.59-11.563 36.028-17.378 34.547-11.511 84.305-19.183 140.732-19.183s106.185 7.671 140.732 19.183c17.438 5.815 29.244 12.032 36.028 17.378 2.658 2.095 3.972 3.563 4.574 4.365v103.027zM544 343.151c0.602-0.802 1.916-2.27 4.574-4.365 6.784-5.35 18.59-11.567 36.028-17.378 34.547-11.516 84.305-19.187 140.732-19.187s106.185 7.671 140.732 19.187c17.438 5.811 29.244 12.028 36.028 17.378 2.658 2.095 3.972 3.563 4.574 4.365v103.027c-6.528-2.807-13.35-5.372-20.365-7.71-42.667-14.221-99.575-22.468-160.969-22.468s-118.302 8.247-160.969 22.468c-7.014 2.338-13.837 4.902-20.365 7.71v-103.027zM545.638 519.112c0.721-0.706 1.677-1.556 2.935-2.547 6.784-5.35 18.59-11.566 36.028-17.377 34.547-11.516 84.305-19.187 140.732-19.187s106.185 7.671 140.732 19.187c17.438 5.811 29.244 12.028 36.028 17.377 1.259 0.99 2.214 1.841 2.935 2.547-0.721 0.706-1.677 1.556-2.935 2.546-6.784 5.349-18.59 11.566-36.028 17.379-34.547 11.514-84.305 19.185-140.732 19.185s-106.185-7.671-140.732-19.185c-17.438-5.813-29.244-12.030-36.028-17.379-1.259-0.99-2.214-1.841-2.935-2.546z" />
<glyph unicode="&#xe91e;" glyph-name="scan-button" d="M640 799.031c0 19.28 15.63 34.909 34.909 34.909h209.455c19.279 0 34.909-15.629 34.909-34.909v-209.455c0-19.279-15.63-34.909-34.909-34.909h-209.455c-19.279 0-34.909 15.63-34.909 34.909v209.455zM674.909 810.667c-6.426 0-11.636-5.21-11.636-11.636v-209.455c0-6.426 5.211-11.636 11.636-11.636h209.455c6.426 0 11.636 5.211 11.636 11.636v209.455c0 6.427-5.211 11.636-11.636 11.636h-209.455zM640 263.758c0 19.279 15.63 34.909 34.909 34.909h209.455c19.279 0 34.909-15.63 34.909-34.909v-209.455c0-19.279-15.63-34.909-34.909-34.909h-209.455c-19.279 0-34.909 15.63-34.909 34.909v209.455zM674.909 275.394c-6.426 0-11.636-5.211-11.636-11.636v-209.455c0-6.426 5.211-11.636 11.636-11.636h209.455c6.426 0 11.636 5.211 11.636 11.636v209.455c0 6.426-5.211 11.636-11.636 11.636h-209.455zM81.455 263.758c0 19.279 15.629 34.909 34.909 34.909h209.455c19.279 0 34.909-15.63 34.909-34.909v-209.455c0-19.279-15.63-34.909-34.909-34.909h-209.455c-19.28 0-34.909 15.63-34.909 34.909v209.455zM116.364 275.394c-6.427 0-11.636-5.211-11.636-11.636v-209.455c0-6.426 5.21-11.636 11.636-11.636h209.455c6.426 0 11.636 5.211 11.636 11.636v209.455c0 6.426-5.211 11.636-11.636 11.636h-209.455zM81.455 799.031c0 19.28 15.629 34.909 34.909 34.909h372.364c19.279 0 34.909-15.629 34.909-34.909v-372.364c0-19.279-15.63-34.909-34.909-34.909h-372.364c-19.28 0-34.909 15.63-34.909 34.909v372.364zM116.364 810.667c-6.427 0-11.636-5.21-11.636-11.636v-372.364c0-6.426 5.21-11.636 11.636-11.636h372.364c6.426 0 11.636 5.211 11.636 11.636v372.364c0 6.427-5.211 11.636-11.636 11.636h-372.364zM256 636.122c0 12.854 10.419 23.273 23.273 23.273h46.545c12.854 0 23.273-10.419 23.273-23.273v-46.545c0-12.854-10.419-23.273-23.273-23.273h-46.545c-12.854 0-23.273 10.419-23.273 23.273v46.545zM663.273 426.667c0 12.854 10.419 23.273 23.273 23.273h23.273c12.854 0 23.273-10.419 23.273-23.273v-23.273c0-12.854-10.419-23.273-23.273-23.273h-23.273c-12.854 0-23.273 10.419-23.273 23.273v23.273zM826.182 426.667c0 12.854 10.419 23.273 23.273 23.273h23.273c12.854 0 23.273-10.419 23.273-23.273v-23.273c0-12.854-10.419-23.273-23.273-23.273h-23.273c-12.854 0-23.273 10.419-23.273 23.273v23.273zM512 275.394c12.854 0 23.273-10.419 23.273-23.273v-23.273c0-12.854-10.419-23.273-23.273-23.273h-23.273c-12.854 0-23.273 10.419-23.273 23.273v23.273c0 12.854 10.419 23.273 23.273 23.273h23.273zM512 112.485c12.854 0 23.273-10.419 23.273-23.273v-23.273c0-12.854-10.419-23.273-23.273-23.273h-23.273c-12.854 0-23.273 10.419-23.273 23.273v23.273c0 12.854 10.419 23.273 23.273 23.273h23.273z" />
<glyph unicode="&#xe91f;" glyph-name="scans" d="M96 768c0 41.237 33.429 74.667 74.667 74.667h682.667c41.237 0 74.667-33.429 74.667-74.667v-192h-64v192c0 5.891-4.774 10.667-10.667 10.667h-682.667c-5.891 0-10.667-4.776-10.667-10.667v-192h-64v192zM938.667 394.667h-853.333v64h853.333v-64zM160 256v-170.667c0-5.892 4.776-10.667 10.667-10.667h682.667c5.892 0 10.667 4.774 10.667 10.667v170.667h64v-170.667c0-41.237-33.429-74.667-74.667-74.667h-682.667c-41.237 0-74.667 33.429-74.667 74.667v170.667h64z" />
<glyph unicode="&#xe920;" glyph-name="search" d="M469.333 736c-147.276 0-266.667-119.391-266.667-266.667s119.391-266.667 266.667-266.667c147.277 0 266.667 119.39 266.667 266.667s-119.39 266.667-266.667 266.667zM138.667 469.334c0 182.622 148.044 330.667 330.667 330.667s330.667-148.044 330.667-330.667c0-79.787-28.258-152.973-75.315-210.099l193.941-193.941-45.252-45.252-193.941 193.941c-57.126-47.057-130.313-75.315-210.099-75.315-182.622 0-330.667 148.045-330.667 330.667z" />
<glyph unicode="&#xe921;" glyph-name="star-full" d="M512 914.209l119.049-366.351 385.212-0.015-311.633-226.431 119.023-366.362-311.65 226.411-311.648-226.411 119.022 366.362-311.632 226.431 385.209 0.015 119.049 366.351z" />
<glyph unicode="&#xe922;" glyph-name="star" d="M504.32 914.209l119.066-366.395 385.254-0.015-311.671-226.459 119.040-366.404-311.689 226.436-311.687-226.436 119.037 366.404-311.67 226.459 385.256 0.015 119.064 366.395zM504.32 707.099l-72.563-223.293-234.784-0.009 189.94-138.010-72.544-223.296 189.951 137.993 189.952-137.993-72.546 223.296 189.939 138.010-234.782 0.009-72.563 223.293z" />
<glyph unicode="&#xe923;" glyph-name="trust" d="M156.229 857.212h711.544l74.773-195.67v-2.148c0-29.577-12.66-50.783-33.434-64.005-4.112-2.618-8.499-4.897-13.112-6.865v-338.653l15.802 9.33c14.729 8.697 31.518 13.284 48.621 13.284 38.488 0 54.388-49.327 23.149-71.806l-260.843-187.678c-33.657-24.215-74.072-37.243-115.535-37.243h-453.38c-13.062 0-25.031 7.291-31.021 18.897l-77.644 150.435c-7.762 15.039-3.619 33.48 9.831 43.753l69.969 53.443c1.012 0.773 2.028 1.538 3.051 2.292v343.945c-4.614 1.969-9 4.247-13.112 6.865-20.774 13.221-33.433 34.427-33.433 64.005v2.148l74.774 195.67zM151.273 581.424v-321.606c42.496 24.49 91.622 35.749 141.007 31.898l321.317-25.058c27.297-2.129 48.361-24.899 48.361-52.28 0-28.961-23.475-52.438-52.438-52.438h-203.073c-3.484 0-6.307-2.823-6.307-6.305 0-3.347 2.614-6.109 5.955-6.295l196.845-10.996c62.057-3.465 123.748 11.553 177.268 43.155l92.518 54.63v345.295c-11.923-2.437-24.639-3.484-37.569-3.484-27.567 0-52.766 10.145-71.813 26.859-19.046-16.714-44.246-26.859-71.813-26.859-33.815 0-64.067 15.262-83.782 39.208-19.714-23.945-49.967-39.208-83.782-39.208s-64.067 15.262-83.782 39.208c-19.714-23.945-49.967-39.208-83.782-39.208s-64.067 15.262-83.782 39.208c-19.714-23.945-49.966-39.208-83.782-39.208-12.93 0-25.646 1.047-37.569 3.484zM284.958 639.659c14.813-23.021 41.211-38.447 71.447-38.447 30.962 0 57.898 16.175 72.495 40.118l21.548 192.61h-124.502l-40.988-194.281zM302.161 833.94h-129.912l-67.495-176.621c0.541-20.634 9.193-33.745 22.629-42.296 14.662-9.332 36.042-13.81 61.458-13.81 31.169 0 58.259 16.393 72.786 40.599l40.534 192.128zM473.868 833.94l-21.679-193.759c14.748-23.31 41.316-38.968 71.78-38.968s57.030 15.658 71.78 38.968l-21.679 193.759h-100.203zM597.488 833.94l21.551-192.61c14.594-23.943 41.533-40.118 72.495-40.118 23.087 0 43.937 8.99 59.106 23.501l-45.861 209.226h-107.29zM728.604 833.94l45.419-207.218c15.311-15.683 37.001-25.509 61.135-25.509 25.416 0 46.797 4.478 61.459 13.81 13.435 8.55 22.088 21.662 22.628 42.294l-67.493 176.624h-123.148zM290.469 268.515c-54.249 4.229-108.151-11.692-151.393-44.723l-69.969-53.443c-4.483-3.423-5.864-9.57-3.277-14.583l77.644-150.435c1.997-3.87 5.986-6.3 10.34-6.3h453.38c36.585 0 72.246 11.494 101.942 32.863l260.843 187.678c12.898 9.279 6.333 29.64-9.556 29.64-12.94 0-25.644-3.47-36.787-10.051l-131.596-77.703c-57.484-33.943-123.746-50.074-190.399-46.35l-196.845 10.994c-15.67 0.875-27.93 13.838-27.93 29.533 0 16.335 13.245 29.577 29.58 29.577h203.073c16.109 0 29.165 13.058 29.165 29.165 0 15.227-11.715 27.892-26.896 29.077l-321.32 25.060z" />
<glyph unicode="&#xe924;" glyph-name="wxlogin" d="M280.036 581.563c20.017 0 36.245 16.228 36.245 36.245s-16.228 36.245-36.245 36.245c-20.017 0-36.245-16.228-36.245-36.245s16.228-36.245 36.245-36.245zM497.501 581.563c20.019 0 36.245 16.228 36.245 36.245s-16.226 36.245-36.245 36.245c-20.017 0-36.243-16.228-36.243-36.245s16.226-36.245 36.243-36.245zM613.483 364.098c20.019 0 36.245 16.226 36.245 36.245 0 20.017-16.226 36.243-36.245 36.243-20.017 0-36.243-16.226-36.243-36.243 0-20.019 16.226-36.245 36.243-36.245zM787.458 364.098c20.017 0 36.243 16.226 36.243 36.245 0 20.017-16.226 36.243-36.243 36.243-20.019 0-36.245-16.226-36.245-36.243 0-20.019 16.226-36.245 36.245-36.245zM58.182 538.071c0 152.839 153.812 272.596 337.836 272.596 182.661 0 335.555-117.988 337.811-269.205 129.487-15.723 231.99-105.479 231.99-217.958 0-69.679-39.771-130.998-100.429-170.964l18.893-75.576c1.096-4.378-0.44-8.995-3.94-11.843-3.498-2.851-8.329-3.421-12.395-1.464l-99.528 47.921c-23.903-5.525-49.133-8.478-75.197-8.478-124.5 0-232.446 68.215-263.58 163.707-11.064-0.882-22.279-1.331-33.624-1.331-32.721 0-64.377 3.749-94.336 10.754l-125.331-60.346c-4.066-1.957-8.898-1.387-12.397 1.464-3.499 2.849-5.035 7.466-3.94 11.843l24.119 96.477c-76.164 49.51-125.951 125.833-125.951 212.403zM423.773 289.707c-2.071 10.989-3.146 22.274-3.146 33.797 0 124.016 124.602 220.404 272.596 220.404 5.804 0 11.569-0.147 17.285-0.435-3.619 133.022-140.553 243.921-314.489 243.921-176.286 0-314.563-113.915-314.563-249.323 0-79.425 47.102-151.054 122.101-197.15 4.324-2.658 6.427-7.813 5.196-12.735l-20.142-80.57 106.708 51.379c2.432 1.171 5.197 1.459 7.817 0.817 29.34-7.187 60.528-11.064 92.884-11.064 9.353 0 18.611 0.323 27.755 0.959zM693.222 520.635c-140.255 0-249.323-90.547-249.323-197.132s109.068-197.132 249.323-197.132c25.698 0 50.465 3.079 73.754 8.785 2.621 0.642 5.383 0.354 7.815-0.817l80.896-38.952-14.909 59.641c-1.231 4.925 0.87 10.079 5.194 12.737 59.476 36.554 96.573 93.182 96.573 155.736 0 99.274-94.62 184.637-220.93 195.877-0.179 0.007-0.356 0.019-0.535 0.035-9.144 0.805-18.439 1.219-27.857 1.219z" />
<glyph unicode="&#xe925;" glyph-name="apps" d="M796.885 830.851c-29.158 29.159-76.433 29.159-105.591 0l-120.683-120.679c-29.158-29.159-29.158-76.436 0-105.595l120.683-120.681c29.158-29.158 76.433-29.158 105.591 0l120.683 120.681c29.158 29.159 29.158 76.436 0 105.595l-120.683 120.679zM736.546 785.596c4.164 4.166 10.918 4.166 15.087 0l120.678-120.679c4.164-4.166 4.164-10.92 0-15.085l-120.678-120.679c-4.169-4.166-10.923-4.166-15.087 0l-120.678 120.679c-4.164 4.166-4.164 10.919 0 15.085l120.678 120.679zM170.667 842.667c-41.237 0-74.667-33.429-74.667-74.667v-213.333c0-41.237 33.429-74.666 74.667-74.666h213.333c41.237 0 74.667 33.429 74.667 74.666v213.333c0 41.237-33.429 74.667-74.667 74.667h-213.333zM160 768c0 5.891 4.776 10.667 10.667 10.667h213.333c5.891 0 10.667-4.776 10.667-10.667v-213.333c0-5.891-4.776-10.667-10.667-10.667h-213.333c-5.891 0-10.667 4.776-10.667 10.667v213.333zM96 298.667c0 41.237 33.429 74.667 74.667 74.667h213.333c41.237 0 74.667-33.429 74.667-74.667v-213.333c0-41.237-33.429-74.667-74.667-74.667h-213.333c-41.237 0-74.667 33.429-74.667 74.667v213.333zM170.667 309.334c-5.891 0-10.667-4.774-10.667-10.667v-213.333c0-5.892 4.776-10.667 10.667-10.667h213.333c5.891 0 10.667 4.774 10.667 10.667v213.333c0 5.892-4.776 10.667-10.667 10.667h-213.333zM640 373.334c-41.237 0-74.667-33.429-74.667-74.667v-213.333c0-41.237 33.429-74.667 74.667-74.667h213.333c41.237 0 74.667 33.429 74.667 74.667v213.333c0 41.237-33.429 74.667-74.667 74.667h-213.333zM629.333 298.667c0 5.892 4.774 10.667 10.667 10.667h213.333c5.892 0 10.667-4.774 10.667-10.667v-213.333c0-5.892-4.774-10.667-10.667-10.667h-213.333c-5.892 0-10.667 4.774-10.667 10.667v213.333z" />
<glyph unicode="&#xe926;" glyph-name="bag" d="M674.359 810.27c-3.021 4.838-8.883 7.091-14.37 5.523l-361.407-103.259h436.863l-61.086 97.736zM805.888 712.534l-80.875 129.395c-17.135 27.416-50.347 40.182-81.434 31.3l-588.113-168.033v-619.862c0-40.060 32.474-72.533 72.533-72.533h768c40.060 0 72.533 32.474 72.533 72.533v554.667c0 40.059-32.474 72.533-72.533 72.533h-90.112zM115.2 652.8h780.8c7.070 0 12.8-5.731 12.8-12.8v-554.667c0-7.070-5.73-12.8-12.8-12.8h-768c-7.069 0-12.8 5.73-12.8 12.8v567.467z" />
<glyph unicode="&#xe927;" glyph-name="bell" d="M544 896v-54.823c172.326-16.125 307.2-161.167 307.2-337.711v-104.358c0-45.38 15.586-89.387 44.151-124.651l9.907-12.233c14.711-18.163 22.741-40.832 22.741-64.209 0-56.341-45.675-102.016-102.016-102.016h-196.651v-10.667c0-64.802-52.531-117.333-117.333-117.333s-117.333 52.531-117.333 117.333v10.667h-196.651c-56.342 0-102.016 45.675-102.016 102.016 0 23.377 8.029 46.046 22.743 64.209l9.906 12.233c28.564 35.264 44.151 79.27 44.151 124.651v104.358c0 176.543 134.872 321.585 307.2 337.711v54.823c0 17.673 14.327 32 32 32s32-14.327 32-32zM565.333 96h-106.667v-10.667c0-29.457 23.876-53.333 53.333-53.333s53.333 23.876 53.333 53.333v10.667zM629.333 160h196.651c20.996 0 38.016 17.020 38.016 38.016 0 8.713-2.991 17.156-8.474 23.927l-9.907 12.228c-37.794 46.665-58.419 104.887-58.419 164.937v104.358c0 151.989-123.213 275.2-275.2 275.2-151.989 0-275.2-123.212-275.2-275.2v-104.358c0-60.049-20.623-118.272-58.419-164.937l-9.906-12.228c-5.483-6.771-8.475-15.215-8.475-23.927 0-20.996 17.020-38.016 38.016-38.016h431.318z" />
<glyph unicode="&#xe928;" glyph-name="cart-add-line1" d="M554.667 469.334v170.667h-85.333v-170.667h-170.667v-85.333h170.667v-170.667h85.333v170.667h170.667v85.333h-170.667zM512 128c-164.949 0-298.667 133.717-298.667 298.667s133.718 298.667 298.667 298.667c164.949 0 298.667-133.718 298.667-298.667s-133.717-298.667-298.667-298.667zM512 42.667c212.079 0 384 171.921 384 384 0 212.077-171.921 384-384 384-212.077 0-384-171.923-384-384 0-212.079 171.923-384 384-384z" />
<glyph unicode="&#xe929;" glyph-name="cart-add" d="M512 42.667c212.079 0 384 171.921 384 384 0 212.077-171.921 384-384 384-212.077 0-384-171.923-384-384 0-212.079 171.923-384 384-384zM554.667 640v-170.667h170.667v-85.333h-170.667v-170.667h-85.333v170.667h-170.667v85.333h170.667v170.667h85.333z" />
<glyph unicode="&#xe92a;" glyph-name="cart-adds" d="M554.667 469.334v256h-85.333v-256h-256v-85.333h256v-256h85.333v256h256v85.333h-256z" />
<glyph unicode="&#xe92b;" glyph-name="cart-mini-line" d="M725.333 384h-426.667v85.333h426.667v-85.333zM512 128c-164.949 0-298.667 133.717-298.667 298.667s133.718 298.667 298.667 298.667c164.949 0 298.667-133.718 298.667-298.667s-133.717-298.667-298.667-298.667zM512 42.667c212.079 0 384 171.921 384 384 0 212.077-171.921 384-384 384-212.077 0-384-171.923-384-384 0-212.079 171.923-384 384-384z" />
<glyph unicode="&#xe92c;" glyph-name="cart-mini" d="M896 426.667c0-212.079-171.921-384-384-384-212.077 0-384 171.921-384 384 0 212.077 171.923 384 384 384 212.079 0 384-171.923 384-384zM298.667 384h426.667v85.333h-426.667v-85.333z" />
<glyph unicode="&#xe92d;" glyph-name="cart-minis" d="M810.667 384h-597.333v85.333h597.333v-85.333z" />
<glyph unicode="&#xe92e;" glyph-name="contact" d="M170.667 810.667c-47.128 0-85.333-38.205-85.333-85.333v-512c0-47.13 38.205-85.333 85.333-85.333h256l106.667-128 106.667 128h213.333c47.13 0 85.333 38.204 85.333 85.333v512c0 47.128-38.204 85.333-85.333 85.333h-682.667zM256 597.334v42.667h512v-42.667h-512zM256 490.667v-42.667h512v42.667h-512zM256 298.667v42.667h512v-42.667h-512z" />
<glyph unicode="&#xe92f;" glyph-name="door-left" d="M0 426.667l292.571 292.571v-182.857h512v-219.429h-512v-182.857l-292.571 292.571z" />
<glyph unicode="&#xe930;" glyph-name="door-open" d="M469.333 853.334c0 23.564-19.102 42.667-42.667 42.667h-341.333c-23.564 0-42.667-19.103-42.667-42.667v-853.333c0-23.565 19.103-42.667 42.667-42.667h341.333c23.565 0 42.667 19.102 42.667 42.667v394.667h-193.294v-75.959l-150.627 107.959 150.627 107.961v-75.961h193.294v394.667zM554.667 853.334c0 23.564 19.102 42.667 42.667 42.667h341.333c23.565 0 42.667-19.103 42.667-42.667v-853.333c0-23.565-19.102-42.667-42.667-42.667h-341.333c-23.565 0-42.667 19.102-42.667 42.667v394.667h193.293v-75.959l150.63 107.959-150.63 107.961v-75.961h-193.293v394.667z" />
<glyph unicode="&#xe931;" glyph-name="door-phone" d="M302.545 880.485c-32.133 0-58.182-26.049-58.182-58.182v-791.273c0-32.133 26.049-58.182 58.182-58.182h418.909c32.133 0 58.182 26.049 58.182 58.182v791.273c0 32.133-26.049 58.182-58.182 58.182h-418.909zM221.091 822.303c0 44.986 36.468 81.455 81.455 81.455h418.909c44.986 0 81.455-36.468 81.455-81.455v-791.273c0-44.986-36.468-81.455-81.455-81.455h-418.909c-44.986 0-81.455 36.468-81.455 81.455v791.273zM628.364 822.303h-232.727c-12.854 0-23.273 10.42-23.273 23.273v46.545h279.273v-46.545c0-12.853-10.419-23.273-23.273-23.273zM593.455 7.758h-162.909c-6.426 0-11.636 5.211-11.636 11.636s5.211 11.636 11.636 11.636h162.909c6.426 0 11.636-5.211 11.636-11.636s-5.211-11.636-11.636-11.636z" />
<glyph unicode="&#xe932;" glyph-name="door-right" d="M1024 426.667l-292.571 292.571v-182.857h-512v-219.429h512v-182.857l292.571 292.571z" />
<glyph unicode="&#xe933;" glyph-name="door" d="M81.455 903.758h861.091v-954.182h-861.091v954.182zM104.727 880.485v-907.636h395.636v298.666h23.273v-298.666h395.636v907.636h-395.636v-298.666h-23.273v298.666h-395.636z" />
<glyph unicode="&#xe934;" glyph-name="exchange" d="M53.333 426.667c0 253.315 205.352 458.667 458.667 458.667s458.667-205.352 458.667-458.667c0-253.316-205.35-458.667-458.667-458.667-253.315 0-458.667 205.35-458.667 458.667zM512 821.334c-217.968 0-394.667-176.698-394.667-394.667 0-217.967 176.698-394.667 394.667-394.667 217.967 0 394.667 176.7 394.667 394.667 0 217.968-176.7 394.667-394.667 394.667zM666.812 670.008c16.572 6.138 34.982-2.321 41.122-18.894l47.407-128c3.639-9.821 2.24-20.8-3.742-29.393-5.982-8.597-15.795-13.722-26.266-13.722h-426.667c-17.673 0-32 14.327-32 32s14.327 32 32 32h380.689l-31.437 84.886c-6.14 16.573 2.321 34.984 18.893 41.122zM363.846 201.259c6.668-16.367 25.342-24.23 41.708-17.562s24.231 25.344 17.562 41.711l-34.192 83.925h379.076c17.673 0 32 14.327 32 32s-14.327 32-32 32h-426.667c-10.654 0-20.61-5.303-26.555-14.144s-7.099-20.062-3.080-29.931l52.148-128z" />
<glyph unicode="&#xe935;" glyph-name="Frame-9" d="M170.667 928c-41.237 0-74.667-33.429-74.667-74.667v-853.333c0-41.237 33.429-74.667 74.667-74.667h682.667c41.237 0 74.667 33.429 74.667 74.667v853.333c0 41.237-33.429 74.667-74.667 74.667h-682.667zM160 853.334c0 5.891 4.776 10.667 10.667 10.667h682.667c5.892 0 10.667-4.776 10.667-10.667v-853.333c0-5.892-4.774-10.667-10.667-10.667h-682.667c-5.891 0-10.667 4.774-10.667 10.667v853.333zM298.667 650.667h426.667v64h-426.667v-64zM682.667 437.334h-384v64h384v-64zM298.667 224h213.333v64h-213.333v-64z" />
<glyph unicode="&#xe936;" glyph-name="help" d="M512-42.666c259.204 0 469.333 210.129 469.333 469.333 0 259.206-210.129 469.333-469.333 469.333-259.206 0-469.333-210.128-469.333-469.333s210.128-469.333 469.333-469.333zM564.668 192h-82.918v-86.665h82.918v86.665zM392.167 670.334c-33.889-36.389-50.833-84.583-50.833-144.583h74.167c1.389 36.111 7.084 63.75 17.085 82.916 17.775 34.445 49.86 51.667 96.247 51.667 37.5 0 64.307-10 80.418-30 16.388-20 24.585-43.611 24.585-70.833 0-19.444-5.555-38.194-16.67-56.251-6.11-10.278-14.165-20.139-24.166-29.581l-33.331-32.917c-31.945-31.39-52.638-59.307-62.084-83.75-9.442-24.166-14.165-56.111-14.165-95.834h74.167c0 34.999 3.887 61.389 11.665 79.168 8.055 18.052 25.417 40 52.083 65.83 36.668 35.558 60.971 62.502 72.917 80.836 12.22 18.334 18.334 42.221 18.334 71.665 0 48.611-16.529 88.472-49.583 119.583-32.781 31.389-76.531 47.084-131.251 47.084-59.166 0-105.695-18.333-139.584-55z" />
<glyph unicode="&#xe937;" glyph-name="lock" d="M224 597.334c0 159.058 128.942 288 288 288s288-128.942 288-288v-96h53.333c41.237 0 74.667-33.429 74.667-74.667v-384c0-41.237-33.429-74.667-74.667-74.667h-682.667c-41.237 0-74.667 33.429-74.667 74.667v384c0 41.237 33.429 74.667 74.667 74.667h53.333v96zM288 501.334h448v96c0 123.712-100.288 224-224 224s-224-100.288-224-224v-96zM170.667 437.334c-5.891 0-10.667-4.774-10.667-10.667v-384c0-5.892 4.776-10.667 10.667-10.667h682.667c5.892 0 10.667 4.774 10.667 10.667v384c0 5.892-4.774 10.667-10.667 10.667h-682.667z" />
<glyph unicode="&#xe938;" glyph-name="logo" d="M349.867 460.8c18.852 0 34.133-15.281 34.133-34.133v-42.667h42.667c18.852 0 34.133-15.281 34.133-34.133s-15.281-34.133-34.133-34.133h-42.667v-42.667c0-18.852-15.281-34.133-34.133-34.133s-34.133 15.281-34.133 34.133v42.667h-42.667c-18.852 0-34.133 15.281-34.133 34.133s15.281 34.133 34.133 34.133h42.667v42.667c0 18.852 15.281 34.133 34.133 34.133zM674.133 460.8c18.852 0 34.133-15.281 34.133-34.133v-42.667h42.667c18.852 0 34.133-15.281 34.133-34.133s-15.281-34.133-34.133-34.133h-42.667v-42.667c0-18.852-15.281-34.133-34.133-34.133s-34.133 15.281-34.133 34.133v42.667h-42.667c-18.852 0-34.133 15.281-34.133 34.133s15.281 34.133 34.133 34.133h42.667v42.667c0 18.852 15.281 34.133 34.133 34.133zM310.403 816.258c17.227 7.656 37.398-0.102 45.054-17.328l59.257-133.329h194.57l59.257 133.329c7.656 17.226 27.827 24.985 45.054 17.328 17.225-7.656 24.984-27.828 17.328-45.054l-46.935-105.604h118.144c75.406 0 136.533-61.128 136.533-136.533v-358.4c0-75.406-61.128-136.533-136.533-136.533h-153.6c-18.852 0-34.133 15.281-34.133 34.133s15.281 34.133 34.133 34.133h153.6c37.702 0 68.267 30.565 68.267 68.267v358.4c0 37.702-30.565 68.267-68.267 68.267h-580.267c-37.702 0-68.267-30.565-68.267-68.267v-358.4c0-37.704 30.565-68.267 68.267-68.267h153.6c18.852 0 34.133-15.281 34.133-34.133s-15.281-34.133-34.133-34.133h-153.6c-75.405 0-136.533 61.128-136.533 136.533v358.4c0 75.406 61.128 136.533 136.533 136.533h118.144l-46.935 105.604c-7.656 17.227 0.102 37.398 17.328 45.054z" />
<glyph unicode="&#xe939;" glyph-name="mall" d="M202.849 778.667c-4.762 0-8.948-3.157-10.256-7.736l-60.952-213.333c-1.947-6.814 3.17-13.597 10.256-13.597h740.207c7.083 0 12.203 6.783 10.253 13.597l-60.949 213.333c-1.31 4.579-5.495 7.736-10.257 7.736h-618.301zM131.056 788.513c9.158 32.055 38.456 54.154 71.793 54.154h618.301c33.335 0 62.635-22.1 71.791-54.154l60.954-213.333c13.329-46.656-20.646-93.105-68.561-95.111v-394.735c0-41.237-33.429-74.667-74.667-74.667h-597.334c-41.237 0-74.667 33.429-74.667 74.667v394.735c-47.917 2.005-81.893 48.455-68.563 95.111l60.953 213.333zM202.666 480v-394.667c0-5.892 4.776-10.667 10.667-10.667h597.334c5.892 0 10.667 4.774 10.667 10.667v394.667h-618.668z" />
<glyph unicode="&#xe93a;" glyph-name="message" d="M512 778.667c-223.042 0-394.667-152.724-394.667-330.667 0-90.615 43.694-173.756 116.485-234.411 7.296-6.080 11.515-15.087 11.515-24.585v-101.939l132.544 44.181c5.849 1.95 12.137 2.167 18.107 0.627 36.63-9.442 75.581-14.541 116.016-14.541 223.044 0 394.667 152.725 394.667 330.667s-171.622 330.667-394.667 330.667zM53.333 448c0 222.647 210.426 394.667 458.667 394.667 248.239 0 458.667-172.019 458.667-394.667s-210.428-394.667-458.667-394.667c-42.441 0-83.593 4.958-122.688 14.263l-165.859-55.287c-9.758-3.255-20.486-1.617-28.83 4.399-8.345 6.012-13.289 15.671-13.289 25.958v131.695c-78.542 70.263-128 166.494-128 273.638zM309.333 554.667c0 17.673 14.327 32 32 32h341.333c17.673 0 32-14.327 32-32s-14.327-32-32-32h-341.333c-17.673 0-32 14.327-32 32zM341.333 416c-17.673 0-32-14.327-32-32s14.327-32 32-32h213.333c17.673 0 32 14.327 32 32s-14.327 32-32 32h-213.333z" />
<glyph unicode="&#xe93b;" glyph-name="money" d="M85.333 842.667c-41.237 0-74.667-33.429-74.667-74.667v-682.667c0-41.237 33.429-74.667 74.667-74.667h853.333c41.237 0 74.667 33.429 74.667 74.667v682.667c0 41.237-33.429 74.667-74.667 74.667h-853.333zM74.667 768c0 5.891 4.776 10.667 10.667 10.667h853.333c5.892 0 10.667-4.776 10.667-10.667v-682.667c0-5.892-4.774-10.667-10.667-10.667h-853.333c-5.891 0-10.667 4.774-10.667 10.667v682.667zM359.704 640.508l82.72-96.508h-143.757v-64h181.333v-106.667h-181.333v-64h181.333v-160h64v160h181.333v64h-181.333v106.667h181.333v64h-143.757l82.718 96.508-48.589 41.651-103.706-120.988-103.704 120.988-48.592-41.651z" />
<glyph unicode="&#xe93c;" glyph-name="order" d="M85.333 938.667h853.333c23.565 0 42.667-19.103 42.667-42.667v-938.667c0-23.565-19.102-42.667-42.667-42.667h-853.333c-23.564 0-42.667 19.102-42.667 42.667v938.667c0 23.564 19.103 42.667 42.667 42.667zM230.4 693.334h563.2v64h-563.2v-64zM230.4 522.667h563.2v64h-563.2v-64zM230.4 352h563.2v64h-563.2v-64zM605.867 181.334v64h-375.467v-64h375.467z" />
<glyph unicode="&#xe93d;" glyph-name="pay" d="M512-42.666c-259.206 0-469.333 210.129-469.333 469.333 0 259.206 210.128 469.333 469.333 469.333 259.204 0 469.333-210.128 469.333-469.333s-210.129-469.333-469.333-469.333zM359.704 640.508l82.72-96.508h-143.757v-64h181.333v-106.667h-181.333v-64h181.333v-160h64v160h181.333v64h-181.333v106.667h181.333v64h-143.757l82.718 96.508-48.589 41.651-103.706-120.988-103.704 120.988-48.592-41.651z" />
<glyph unicode="&#xe93e;" glyph-name="safe" d="M512 887.064l416-138.667v-189.54c0-248.704-146.466-474.083-373.739-575.092l-42.261-18.782-42.261 18.782c-227.272 101.009-373.739 326.387-373.739 575.092v189.54l416 138.667zM160 702.269v-143.412c0-217.622 124.839-415.36 320-509.329v759.408l-320-106.667zM544 808.936v-759.408c195.162 93.969 320 291.708 320 509.329v143.412l-320 106.667z" />
<glyph unicode="&#xe93f;" glyph-name="scan" d="M970.667 885.334h-917.333v-316.445h53.333v263.111h810.667v-263.111h53.333v316.445zM981.333 448h-938.667v-42.667h938.667v42.667zM106.667 284.446v-263.113h810.667v263.113h53.333v-316.446h-917.333v316.446h53.333zM501.333 512v128h106.667v-128h-106.667zM202.667 341.334v-128h21.333v128h-21.333zM501.333 213.334v128h106.667v-128h-106.667zM789.333 213.334v128h42.667v-128h-42.667zM256 213.334v128h213.333v-128h-213.333zM650.667 341.334v-128h64v128h-64zM789.333 640v-128h42.667v128h-42.667zM202.667 512v128h21.333v-128h-21.333zM256 640v-128h213.333v128h-213.333zM650.667 512v128h64v-128h-64zM757.333 341.334v-128h21.333v128h-21.333zM757.333 512v128h21.333v-128h-21.333z" />
<glyph unicode="&#xe940;" glyph-name="service" d="M245.333 522.667c0 153.167 124.166 277.333 277.333 277.333 153.169 0 277.333-124.166 277.333-277.333v-128h42.667c94.255 0 170.667-76.412 170.667-170.667s-76.412-170.667-170.667-170.667h-106.667v469.333c0 117.821-95.514 213.333-213.333 213.333s-213.333-95.513-213.333-213.333v-469.333h-128c-94.257 0-170.667 76.412-170.667 170.667s76.41 170.667 170.667 170.667h64v128zM245.333 330.667h-64c-58.91 0-106.667-47.757-106.667-106.667s47.756-106.667 106.667-106.667h64v213.333zM800 330.667v-213.333h42.667c58.91 0 106.667 47.757 106.667 106.667s-47.757 106.667-106.667 106.667h-42.667z" />
<glyph unicode="&#xe941;" glyph-name="setting" d="M453.85 881.679c19.055 2.413 38.464 3.655 58.15 3.655s39.095-1.242 58.15-3.655l18.475-2.339 40.397-98.057c7.194-2.371 14.285-4.956 21.274-7.744l93.978 49.151 15.654-10.075c32.811-21.12 62.75-46.304 89.105-74.841l12.617-13.664-32.081-101.069c3.959-6.388 7.731-12.905 11.307-19.543l103.671-22.775 5.521-17.766c11.345-36.495 18.249-74.923 20.096-114.637l0.866-18.556-89.532-56.798c-1.079-7.484-2.381-14.899-3.9-22.238l64.777-84.083-7.194-17.161c-15.164-36.177-34.82-69.986-58.27-100.732l-11.268-14.775-105.165 14.050c-5.589-4.988-11.337-9.813-17.22-14.464l-4.429-106.069-16.503-8.529c-34.172-17.664-70.861-31.159-109.376-39.812l-18.125-4.075-71.582 78.421c-3.738-0.111-7.484-0.166-11.243-0.166s-7.505 0.055-11.243 0.166l-71.582-78.421-18.123 4.075c-38.519 8.653-75.204 22.148-109.376 39.812l-16.505 8.529-4.427 106.069c-5.888 4.651-11.631 9.476-17.223 14.464l-105.164-14.050-11.267 14.775c-23.449 30.746-43.109 64.555-58.273 100.732l-7.193 17.161 64.777 84.083c-1.517 7.339-2.818 14.754-3.898 22.238l-89.531 56.798 0.863 18.556c1.848 39.714 8.753 78.142 20.095 114.637l5.521 17.766 103.673 22.775c3.576 6.639 7.347 13.155 11.305 19.543l-32.080 101.069 12.619 13.664c26.354 28.537 56.291 53.722 89.105 74.841l15.654 10.075 93.976-49.151c6.989 2.789 14.083 5.373 21.274 7.744l40.398 98.057 18.475 2.339zM480.175 820.071l-37.696-91.503-14.95-4.233c-14.511-4.109-28.589-9.252-42.151-15.345l-14.174-6.368-87.71 45.873c-17.336-12.333-33.635-26.033-48.74-40.944l29.955-94.373-8.738-12.855c-8.384-12.334-15.896-25.3-22.452-38.812l-6.772-13.957-96.736-21.251c-5.276-20.289-8.979-41.221-10.97-62.661l83.648-53.065 1.565-15.471c1.525-15.070 4.131-29.811 7.737-44.151l3.784-15.044-60.439-78.451c9.154-19.26 19.825-37.662 31.86-55.057l98.208 13.12 11.139-10.816c10.716-10.402 22.181-20.036 34.305-28.813l12.563-9.092 4.133-99.021c19.142-8.785 39.105-16.085 59.744-21.747l66.822 73.203 15.467-1.105c7.398-0.529 14.878-0.798 22.421-0.798s15.023 0.269 22.421 0.798l15.467 1.105 66.825-73.203c20.638 5.662 40.602 12.962 59.742 21.747l4.134 99.021 12.561 9.092c12.126 8.777 23.59 18.411 34.304 28.813l11.14 10.816 98.21-13.12c12.036 17.395 22.707 35.797 31.859 55.057l-60.437 78.451 3.78 15.044c3.61 14.34 6.212 29.082 7.74 44.151l1.566 15.471 83.648 53.065c-1.993 21.44-5.696 42.372-10.97 62.661l-96.738 21.251-6.771 13.957c-6.554 13.512-14.067 26.479-22.451 38.812l-8.738 12.855 29.956 94.373c-15.104 14.911-31.407 28.611-48.742 40.944l-87.71-45.873-14.174 6.368c-13.559 6.093-27.639 11.235-42.15 15.345l-14.95 4.233-37.696 91.503c-10.492 0.836-21.107 1.263-31.825 1.263s-21.333-0.427-31.825-1.263zM512 565.334c-76.582 0-138.667-62.084-138.667-138.667s62.084-138.667 138.667-138.667c76.582 0 138.667 62.084 138.667 138.667s-62.084 138.667-138.667 138.667zM309.333 426.667c0 111.93 90.737 202.667 202.667 202.667 111.932 0 202.667-90.737 202.667-202.667 0-111.932-90.735-202.667-202.667-202.667-111.93 0-202.667 90.735-202.667 202.667z" />
<glyph unicode="&#xe942;" glyph-name="success" d="M512-42.666c259.204 0 469.333 210.129 469.333 469.333 0 259.206-210.129 469.333-469.333 469.333-259.206 0-469.333-210.128-469.333-469.333s210.128-469.333 469.333-469.333zM213.333 384l21.333 42.667 192-106.667 341.333 362.667 42.667-42.667-362.667-469.333-234.667 213.333z" />
<glyph unicode="&#xe943;" glyph-name="user" d="M512 885.334c-135.494 0-245.333-109.839-245.333-245.333 0-135.492 109.839-245.333 245.333-245.333 135.492 0 245.333 109.841 245.333 245.333 0 135.494-109.841 245.333-245.333 245.333zM330.667 640c0 100.148 81.186 181.333 181.333 181.333s181.333-81.186 181.333-181.333c0-100.148-81.186-181.333-181.333-181.333s-181.333 81.186-181.333 181.333zM117.333 42.667c0 123.712 100.288 224 224 224h341.333c123.712 0 224-100.288 224-224 0-5.892-4.774-10.667-10.667-10.667h-768c-5.891 0-10.667 4.774-10.667 10.667zM341.333 330.667c-159.058 0-288-128.943-288-288 0-41.237 33.429-74.667 74.667-74.667h768c41.237 0 74.667 33.429 74.667 74.667 0 159.057-128.943 288-288 288h-341.333z" />
<glyph unicode="&#xe944;" glyph-name="arr-down" d="M265.373 545.294c-12.497-12.497-12.497-32.758 0-45.254l213.335-213.333c12.497-12.497 32.755-12.497 45.252 0l213.333 213.333c12.497 12.495 12.497 32.757 0 45.254s-32.755 12.497-45.252 0l-190.707-190.704-190.706 190.704c-12.497 12.497-32.758 12.497-45.255 0z" />
<glyph unicode="&#xe945;" glyph-name="arr-left" d="M630.626 651.961c-12.497 12.497-32.755 12.497-45.252 0l-213.335-213.335c-12.497-12.497-12.497-32.755 0-45.252l213.335-213.333c12.497-12.497 32.755-12.497 45.252 0s12.497 32.755 0 45.252l-190.703 190.707 190.703 190.706c12.497 12.497 12.497 32.758 0 45.255z" />
<glyph unicode="&#xe946;" glyph-name="arr-right" d="M372.039 180.041c12.497-12.497 32.758-12.497 45.255 0l213.332 213.333c12.497 12.497 12.497 32.755 0 45.252l-213.332 213.335c-12.497 12.497-32.758 12.497-45.255 0s-12.497-32.758 0-45.255l190.704-190.706-190.704-190.707c-12.497-12.497-12.497-32.755 0-45.252z" />
<glyph unicode="&#xe947;" glyph-name="arr-up" d="M737.293 286.708c12.497 12.497 12.497 32.755 0 45.252l-213.333 213.335c-12.497 12.497-32.755 12.497-45.252 0l-213.335-213.335c-12.497-12.497-12.497-32.755 0-45.252s32.758-12.497 45.255 0l190.706 190.703 190.707-190.703c12.497-12.497 32.755-12.497 45.252 0z" />
<glyph unicode="&#xe948;" glyph-name="Frame-91" d="M170.667 928c-41.237 0-74.667-33.429-74.667-74.667v-853.333c0-41.237 33.429-74.667 74.667-74.667h682.667c41.237 0 74.667 33.429 74.667 74.667v853.333c0 41.237-33.429 74.667-74.667 74.667h-682.667zM160 853.334c0 5.891 4.776 10.667 10.667 10.667h682.667c5.892 0 10.667-4.776 10.667-10.667v-853.333c0-5.892-4.774-10.667-10.667-10.667h-682.667c-5.891 0-10.667 4.774-10.667 10.667v853.333zM298.667 650.667h426.667v64h-426.667v-64zM682.667 437.334h-384v64h384v-64zM298.667 224h213.333v64h-213.333v-64z" />
</font>
</defs>
</svg>
